<svg width="313" height="106" viewBox="0 0 313 106" fill="none" xmlns="http://www.w3.org/2000/svg">
<path d="M5 17.0972L308 5.99994V99.9999L5 90.2083V17.0972Z" fill="#FEAE03"/>
<path fill-rule="evenodd" clip-rule="evenodd" d="M0 12.2769L313 0.813477V105.164L0 95.0493V12.2769ZM5 90.2083V17.0972L308 5.99995V100L5 90.2083Z" fill="#2B2830"/>
<path d="M200.984 39.2656L189.969 57.2656L190.297 70.5312H178.25L178.531 57.3593L169.953 39.9687L181.906 38.4687L185.656 48.5937L189.734 38.4687L200.984 39.2656Z" fill="#2B2830"/>
<path d="M170.68 37.9999C169.977 43.4999 169.375 48.9765 168.875 54.4296C168.375 59.8671 167.898 65.3437 167.445 70.8593L157.836 71.5624L158.258 67.9531C157.945 68.3124 157.578 68.6249 157.156 68.8906C156.75 69.1562 156.312 69.3749 155.844 69.5468C155.375 69.7031 154.891 69.8203 154.391 69.8984C153.891 69.9609 153.414 69.9843 152.961 69.9687C151.898 69.9531 150.898 69.7499 149.961 69.3593C149.023 68.9531 148.164 68.4218 147.383 67.7656C146.602 67.0937 145.898 66.3203 145.273 65.4453C144.648 64.5546 144.117 63.6249 143.68 62.6562C143.258 61.6718 142.93 60.6718 142.695 59.6562C142.477 58.6406 142.367 57.6562 142.367 56.7031C142.367 55.2968 142.391 53.8437 142.438 52.3437C142.5 50.8281 142.602 49.3124 142.742 47.7968C142.883 46.2812 143.062 44.7812 143.281 43.2968C143.516 41.8124 143.805 40.3906 144.148 39.0312C146.055 39.1249 147.969 39.2109 149.891 39.289C151.812 39.3671 153.727 39.3906 155.633 39.3593C155.273 40.7187 154.914 42.0859 154.555 43.4609C154.211 44.8203 153.898 46.1953 153.617 47.5859C153.336 48.9609 153.109 50.3437 152.938 51.7343C152.766 53.1249 152.68 54.5312 152.68 55.9531C152.68 56.2812 152.695 56.7499 152.727 57.3593C152.758 57.9687 152.836 58.5703 152.961 59.164C153.102 59.7578 153.305 60.2812 153.57 60.7343C153.852 61.1718 154.242 61.3906 154.742 61.3906C155.336 61.3906 155.867 61.1406 156.336 60.6406C156.805 60.1249 157.219 59.4374 157.578 58.5781C157.938 57.7187 158.242 56.7265 158.492 55.6015C158.758 54.4765 158.977 53.3046 159.148 52.0859C159.336 50.8515 159.484 49.6093 159.594 48.3593C159.703 47.1093 159.781 45.9374 159.828 44.8437C159.891 43.7343 159.93 42.7421 159.945 41.8671C159.977 40.9921 159.992 40.3124 159.992 39.8281C159.992 39.5156 159.984 39.2109 159.969 38.914C159.953 38.6171 159.93 38.3124 159.898 37.9999C160.914 38.0312 161.922 38.0546 162.922 38.0703C163.922 38.0859 164.93 38.0937 165.945 38.0937C166.727 38.0937 167.508 38.0937 168.289 38.0937C169.086 38.0781 169.883 38.0468 170.68 37.9999Z" fill="#2B2830"/>
<path d="M141.477 62.6562C141.477 63.9531 141.234 65.0703 140.75 66.0078C140.281 66.9453 139.648 67.7421 138.852 68.3984C138.055 69.0546 137.133 69.5937 136.086 70.0156C135.055 70.4218 133.977 70.7421 132.852 70.9765C131.727 71.2109 130.594 71.3671 129.453 71.4453C128.328 71.5234 127.273 71.5624 126.289 71.5624C125.32 71.5624 124.312 71.5234 123.266 71.4453C122.234 71.3828 121.203 71.2656 120.172 71.0937C119.141 70.9218 118.125 70.6953 117.125 70.414C116.125 70.1171 115.18 69.7499 114.289 69.3124L114.242 39.1249C115.117 38.7656 116.047 38.4453 117.031 38.164C118.016 37.8671 119.016 37.6249 120.031 37.4374C121.062 37.2343 122.086 37.0859 123.102 36.9921C124.117 36.8828 125.102 36.8281 126.055 36.8281C127.164 36.8281 128.281 36.8984 129.406 37.039C130.547 37.1796 131.641 37.414 132.688 37.7421C133.734 38.0703 134.711 38.4999 135.617 39.0312C136.523 39.5468 137.312 40.1874 137.984 40.9531C138.672 41.7187 139.203 42.6093 139.578 43.6249C139.969 44.6406 140.164 45.8124 140.164 47.1406C140.164 48.0156 140.039 48.8359 139.789 49.6015C139.539 50.3671 139.18 51.0546 138.711 51.664C138.242 52.2734 137.672 52.7968 137 53.2343C136.328 53.6562 135.57 53.9687 134.727 54.1718C135.742 54.4374 136.664 54.8281 137.492 55.3437C138.336 55.8593 139.047 56.4843 139.625 57.2187C140.219 57.9531 140.672 58.7812 140.984 59.7031C141.312 60.6249 141.477 61.6093 141.477 62.6562ZM129.57 49.2968C129.57 48.8437 129.477 48.4609 129.289 48.1484C129.102 47.8203 128.867 47.5546 128.586 47.3515C128.32 47.1484 128.023 46.9999 127.695 46.9062C127.383 46.8124 127.102 46.7656 126.852 46.7656C126.539 46.7656 126.234 46.8124 125.938 46.9062C125.641 46.9999 125.352 47.1093 125.07 47.2343L124.93 52.4374C125.289 52.4374 125.734 52.4062 126.266 52.3437C126.797 52.2812 127.305 52.1484 127.789 51.9453C128.289 51.7265 128.711 51.414 129.055 51.0078C129.398 50.5859 129.57 50.0156 129.57 49.2968ZM126.242 56.9374C125.789 56.9374 125.352 56.9843 124.93 57.0781L124.836 62.4218C125.07 62.4687 125.297 62.5156 125.516 62.5624C125.75 62.5937 125.977 62.6093 126.195 62.6093C126.523 62.6093 126.883 62.5781 127.273 62.5156C127.664 62.4374 128.031 62.2968 128.375 62.0937C128.719 61.8749 129 61.5859 129.219 61.2265C129.453 60.8671 129.57 60.3906 129.57 59.7968C129.57 59.2031 129.453 58.7187 129.219 58.3437C129 57.9687 128.727 57.6796 128.398 57.4765C128.07 57.2578 127.711 57.1171 127.32 57.0546C126.93 56.9765 126.57 56.9374 126.242 56.9374Z" fill="#2B2830"/>
</svg>
