<?xml version="1.0" encoding="UTF-8"?>
<svg id="Layer_1" data-name="Layer 1" xmlns="http://www.w3.org/2000/svg" viewBox="0 0 735.65 161.34">
  <defs>
    <style>
      .cls-1 {
        fill: #fff;
      }

      .cls-2 {
        fill: #2a2a2a;
      }
    </style>
  </defs>
  <path class="cls-2" d="m427.43,47.09c.66-1.31,1.31-2.47,1.85-3.69,1.25-2.84,3.36-5.08,5.27-7.41,2.59-3.17,5.62-5.96,9.25-7.95,1.25-.68,2.53-1.33,3.99-1.62,1.74-.34,3.42-.98,5.13-1.46,1.86-.51,3.75-.49,5.64-.16.58.1,1.18.22,1.77.2,1.82-.05,3.54.46,5.26.91.85.22,1.64.73,2.49.92,1.41.31,2.65.89,3.83,1.72,1.06.75,2.22,1.36,3.29,2.09.83.56,1.61,1.19,2.39,1.83.97.8,1.91,1.65,2.87,2.48.2.17.4.33.56.53,1.88,2.35,3.79,4.68,5.62,7.06.65.85,1.16,1.81,1.7,2.74.69,1.17,1.34,2.37,2.12,3.55.21-1.59,1.16-2.88,1.58-4.35.41-1.45,1.11-2.74,1.71-4.1,1.34-3.02,3.23-5.69,5.36-8.16,2.75-3.18,5.77-6.11,9.46-8.23.71-.41,1.4-.84,2.1-1.24.26-.15.52-.31.8-.39,2.25-.64,4.5-1.27,6.76-1.88,1.79-.48,3.59-.47,5.41-.05.64.15,1.32.1,1.98.16.77.07,1.55.16,2.32.26,1.75.23,3.35.97,4.96,1.59,1.79.69,3.51,1.57,5.25,2.38.23.11.46.26.66.42,1.77,1.47,3.58,2.88,5.18,4.55.92.96,1.89,1.88,2.86,2.81.23.22.51.38.77.57.28-1.44.57-2.8.81-4.17.31-1.79,1.42-3.07,2.69-4.25.84-.78,1.79-1.44,2.64-2.21,1.15-1.04,2.6-1.55,3.91-2.33.41-.25.82-.51,1.24-.73.56-.29,1.15-.5,1.69-.81,1.71-1.02,3.78-1.03,5.53-1.97.86-.46,1.91-.65,2.9-.76,1.56-.17,3.03-.67,4.54-1.05,1.34-.34,2.68-.63,4.07-.58.29.01.6-.02.88-.1,1.55-.48,3.08-.27,4.62.09,1.77.42,3.57.72,5.34,1.13.64.15,1.24.46,1.88.67.7.23,1.41.47,2.13.63.92.21,1.75.58,2.5,1.16.97.74,1.98,1.46,3,2.13,2.97,1.93,5.34,4.48,7.57,7.18.92,1.12,1.84,2.24,2.67,3.43.7,1,1.34,2.06,1.84,3.17.35.79.79,1.5,1.31,2.18,1.04,1.37,1.8,2.87,2.3,4.54.28.93.89,1.76,1.45,2.81.18-.38.29-.59.37-.8.54-1.54,1.07-3.08,1.61-4.62.23-.67.53-1.32.69-2,.63-2.69,1.82-5.17,2.87-7.7.72-1.74,1.54-3.45,2.37-5.14.39-.8.88-1.54,1.36-2.29,1.57-2.43,3.11-4.88,4.75-7.27.58-.84,1.4-1.52,2.12-2.27.66-.69,1.32-1.38,1.99-2.06.13-.13.24-.29.38-.4,1.7-1.27,3.39-2.54,5.11-3.79.35-.25.8-.38,1.21-.56.74-.33,1.46-.72,2.23-.97,1.09-.36,2.2-.67,3.32-.92,1.78-.4,3.56-.81,5.4-.73.29.01.61-.01.88-.1,1.41-.42,2.78-.22,4.17.12,1.01.25,2.03.44,3.06.6,2,.3,3.85,1.06,5.72,1.77.51.19.95.57,1.4.9,1.92,1.4,3.83,2.8,5.81,4.25.22-.28.39-.51.57-.72.66-.75,1.27-1.55,1.99-2.24,1.88-1.78,4.31-2.1,6.72-2.28,1.88-.15,3.78-.06,5.66-.4,1.19-.21,2.45-.04,3.68-.08.78-.03,1.55-.16,2.32-.21,1.3-.09,2.6-.14,3.89-.23,1.04-.07,2.07-.2,3.1-.26,1.26-.08,2.52-.1,3.78-.18.92-.06,1.85-.16,2.77-.25.74-.07,1.48-.13,2.22-.19,1.37-.11,2.74-.22,4.1-.33.48-.04.96-.08,1.44-.12,1.03-.09,2.07-.18,3.1-.27.67-.06,1.33-.11,2-.17.7-.07,1.41-.08,2.1-.22,2.76-.57,5.44-.17,8,.79,1.94.73,3.37,2.24,4.1,4.19.91,2.44,1.55,4.96,1.37,7.62-.03.37,0,.75-.1,1.11-.38,1.57-.35,3.17-.35,4.76,0,6.65,0,13.3,0,19.94,0,.44.03.9-.06,1.33-.42,1.83-.34,3.69-.34,5.54,0,4.72.09,9.44-.08,14.15-.1,2.74-.24,5.48-.42,8.22-.09,1.42-.47,2.87-.97,4.22-.53,1.44-1.7,2.49-2.83,3.53-1.32,1.22-2.93,1.7-4.62,2.04-.14.03-.29.06-.43.1,0,.1-.01.19.03.23,2.05,2.14,2.49,4.84,2.58,7.62.08,2.37.06,4.74-.31,7.11-.24,1.56-.03,3.19-.09,4.78-.08,2.45-.22,4.89-.31,7.34-.06,1.67-.11,3.34-.11,5.01,0,1.94-.1,3.86-.81,5.76.29.14.55.25.79.39,2.17,1.26,3.7,2.92,4.34,5.49.87,3.51.68,6.98.22,10.49-.2,1.51-.47,3.02-.49,4.54-.03,2.43-.51,4.79-.81,7.18-.05.4-.13.81-.12,1.22.05,2.42-.6,4.7-1.34,6.97-.42,1.3-1.29,2.31-2.3,3.22-2.16,1.94-4.85,2.4-7.57,2.49-6.51.2-13.03.08-19.53.39-5.43.26-10.86.28-16.29.38-1.63.03-3.26.14-4.9.18-.4,0-.81-.1-1.2-.19-1.52-.35-3.1-.56-4.28-1.72-.53-.52-1.04-1.05-1.53-1.6-.27-.3-.48-.64-.74-.99-.64.31-1.26.51-1.76.86-1.96,1.39-4.26,1.95-6.51,2.53-3.42.87-6.88,1.61-10.36,2.16-3.49.55-7.03.55-10.57.2-3.51-.35-6.87-1.27-10.18-2.38-1.05-.35-2.08-.84-3.02-1.42-2.26-1.38-4.37-2.95-6.11-4.97-.19-.22-.42-.42-.61-.65-.7-.81-1.48-1.57-2.08-2.44-.72-1.03-1.3-2.16-1.93-3.25-.68-1.19-1.39-2.37-1.99-3.59-.51-1.02-.89-2.11-1.33-3.17-.05-.13-.14-.25-.27-.47-1.65,2.7-4.08,4.57-6.18,6.74-.92.95-2.1,1.66-3.16,2.47-1.53,1.18-3.12,2.27-4.89,3.09-.97.45-1.85,1.11-2.81,1.6-3.49,1.77-7.1,3.17-10.97,3.87-1.49.27-2.91.87-4.39,1.21-3.52.81-7.06,1.45-10.7,1.34-.55-.02-1.13.02-1.67.13-2.03.44-4.1.4-6.11.2-2.19-.22-4.39-.2-6.55-.45-1.93-.22-3.92-.51-5.5-1.9-1.31-1.15-2.22-2.47-2.77-4.19-.77-2.4-.28-4.6.46-6.84.07-.21.13-.42.19-.63,0-.02-.04-.06-.12-.2-.39.34-.78.68-1.16,1.01-.48.41-.91.9-1.44,1.22-1.64,1.01-3.32,1.97-4.99,2.92-.32.18-.7.24-1.05.37-.86.32-1.71.69-2.59.98-1.3.43-2.61.9-3.95,1.18-2.98.61-5.98,1.16-9,1.61-1,.15-2.09.04-3.09-.18-3.08-.68-6.15-1.45-9.21-2.22-.57-.14-1.13-.38-1.65-.67-4.64-2.6-8.65-5.88-11.61-10.36-1.43-2.17-2.87-4.33-3.89-6.89-.21.32-.34.51-.46.71-1.1,1.85-2.24,3.69-3.82,5.19-.16.15-.32.32-.44.5-1.16,1.72-2.69,3.06-4.33,4.31-1.18.9-2.3,1.89-3.5,2.77-.77.57-1.63,1.02-2.46,1.52-.22.13-.51.18-.7.34-1.13.99-2.57,1.3-3.92,1.81-1.14.43-2.24.99-3.39,1.38-1.05.36-2.15.6-3.24.82-3.35.69-6.73,1.24-10.17,1.05-2.53-.14-5.02-.55-7.47-1.22-1.54-.42-3.07-.9-4.59-1.38-.35-.11-.69-.28-1-.48-1.43-.93-2.86-1.87-4.27-2.84-1.78-1.24-3.35-2.74-4.69-4.42-1.61-2.03-3.04-4.22-4.53-6.34-.19-.27-.38-.57-.46-.89-.63-2.5-2.29-4.55-3.06-6.99-.88-2.79-1.77-5.58-2.66-8.37-.07-.21-.12-.41-.22-.74-.27.19-.46.32-.64.46-.11.09-.19.23-.31.32-2.3,1.76-4.36,3.82-6.99,5.13-1.06.53-2.06,1.16-3.1,1.73-.26.14-.54.25-.83.32-1.23.29-2.42.65-3.59,1.16-1.21.53-2.55.82-3.85,1.11-.71.16-1.03.49-1.11,1.16-.05.4-.17.8-.19,1.21-.29,5.84-1.69,11.44-3.68,16.9-.88,2.41-2.1,4.67-3.68,6.72-.91,1.17-2.05,2.14-3.38,2.67-1.43.57-3.02.98-4.54,1-7.26.1-14.52.12-21.77,0-2.21-.03-4.45-.49-6.22-2.08-1.21-1.08-2.06-2.34-2.56-3.94-1.04-3.39-.08-6.34,1.62-9.21.39-.66.7-1.38.99-2.1.58-1.48,1.14-2.98,1.66-4.48.21-.59.37-1.21.44-1.83.59-5.36.7-10.74.35-16.13-.26-3.96-.58-7.92-.97-11.87-.32-3.25-.77-6.48-1.2-9.72-.54-4.08-1.12-8.16-1.65-12.24-.26-2.02-.43-4.06-.67-6.08-.36-3.02-.79-6.03-1.11-9.05-.24-2.29-.36-4.58-.54-6.88-.11-1.4-.25-2.81-.34-4.21-.06-.96-.05-1.93-.11-2.89-.09-1.4-.24-2.81-.34-4.21-.05-.7-.08-1.41-.09-2.11-.01-.74.06-1.49,0-2.23-.3-3.75.74-7.3,1.69-10.83.28-1.05,1.07-2.07,1.89-2.83,1.36-1.25,2.89-2.33,4.42-3.38.81-.56,1.78-.88,2.67-1.32,1.15-.57,2.28-1.19,3.44-1.72,1.27-.58,2.44-1.36,3.86-1.66,1.56-.33,3.13-.73,4.6-1.31,1.11-.44,2.2-.89,3.37-1.09,1.13-.19,2.28-.31,3.42-.44.77-.09,1.55-.15,2.33-.23.7-.07,1.4-.21,2.1-.23,1.78-.05,3.56-.07,5.34-.35.96-.15,2.02-.01,2.98.21,2.5.58,4.97,1.24,7.44,1.94.7.2,1.3.73,2,.93,1.28.36,2.39.99,3.46,1.75.45.32.96.57,1.42.88.77.51,1.61.96,2.29,1.58,2.92,2.71,5.72,5.51,7.7,9.04,1.27,2.26,2.71,4.43,4.08,6.63.07.12.17.22.29.36Zm242.06,22.45c.03-.39.07-.65.07-.9-.01-3.23-.02-6.46-.05-9.69-.07-7.24-.13-14.48-.22-21.72-.04-3.41-.14-6.83-.2-10.24-.03-1.56-.04-3.12-.04-4.68,0-.85-.3-1.63-.78-2.29-1.32-1.8-2.6-3.65-4.56-4.86-.75-.47-1.48-.99-2.27-1.39-1.21-.61-2.34-1.43-3.75-1.56-.1,0-.19-.12-.3-.15-.56-.18-1.11-.47-1.69-.52-1.48-.12-2.98-.23-4.46-.15-2.53.14-5.03.49-7.2,1.98-.12.08-.26.16-.4.19-1.23.25-2.07,1.18-2.97,1.89-1.4,1.11-2.67,2.43-3.82,3.81-1.34,1.61-2.52,3.35-3.7,5.08-1.95,2.86-3.39,6.01-4.76,9.17-1.87,4.33-3.41,8.79-4.68,13.33-1.24,4.43-2.3,8.91-3.1,13.44-.57,3.21-.84,6.48-1.43,9.68-.69,3.77-.8,7.6-1.22,11.4-.31,2.8-.39,5.63-.45,8.45-.09,4.12-.02,8.24-.1,12.36-.12,6.48.37,12.92,1.27,19.31.92,6.48,2.35,12.84,5.41,18.73,1.42,2.75,3.29,5.14,5.66,7.08,3.97,3.25,8.61,4.69,13.73,4.84,5.38.15,10.59-.65,15.69-2.31,3.66-1.19,7.18-2.65,10.34-4.88,2.19-1.54,4.39-3.06,5.99-5.28.43-.6.68-1.2.73-1.93.21-3.82.54-7.63.65-11.45.28-9.32.23-18.64.03-27.96-.09-3.82-.2-7.65-.32-11.47-.02-.54-.15-1.07-.23-1.67-.85,0-1.55-.05-2.25.01-1.74.16-3.47.4-5.22.19-1.22-.14-2.45-.23-3.67-.23-3.35,0-6.69.06-10.04.08-.74,0-1.49-.03-2.23-.08-1.37-.08-2.74-.2-4.12-.28-.35-.02-.71.05-1.19.08,0,.57-.02,1.05,0,1.52.04,1.08.15,2.15.14,3.23-.03,5.98-.08,11.96-.12,17.93-.01,1.26-.07,2.52-.06,3.79,0,.9.14,1.01,1.03,1.08,3.08.24,6.16.47,9.23.72.36.03.72.11,1.2.18-.14,1.92-.26,3.77-.44,5.61-.03.32-.31.66-.54.92-2.34,2.66-8.44,3.57-11.5-.06-1.24-1.47-2.2-3.07-2.89-4.85-1.57-4.02-2.21-8.25-2.44-12.52-.28-5.19-.33-10.38.59-15.54.68-3.85,1.52-7.64,3.07-11.25.81-1.89,1.68-3.74,3.01-5.31,1.48-1.75,2.9-3.63,5.3-4.27.13-.04.24-.17.37-.23.32-.15.64-.34.98-.41.58-.13,1.18-.16,1.76-.27,1.53-.28,3.03-.16,4.52.32.57.18,1.17.24,1.73.44,1.32.48,2.62,1.01,3.92,1.53.1.04.16.16.25.22.73.55,1.46,1.1,2.2,1.63.11.08.27.08.54.16Zm-113.46,79.99c2.28.16,4.42.38,6.57.45,3.35.12,6.69-.02,10.03-.37,4.94-.51,9.78-1.41,14.43-3.2,5.21-2,10.09-4.53,14.26-8.33,3.22-2.94,5.89-6.29,8.04-10.05,2.67-4.65,4.24-9.73,5.27-14.95,1.14-5.77,1.64-11.61,1.59-17.49-.05-4.9-.32-9.78-.8-14.67-.4-4.04-1.03-8.03-1.83-11.99-1.07-5.27-2.43-10.48-4.32-15.54-1.47-3.92-2.9-7.86-5.04-11.49-1.09-1.85-2.15-3.72-3.31-5.53-.63-.99-1.5-1.83-2.16-2.8-1.14-1.67-2.74-2.89-4.11-4.33-.35-.36-.73-.69-1.14-.99-.86-.62-1.72-1.24-2.62-1.79-.68-.42-1.4-.82-2.15-1.09-1.29-.45-2.61-.82-3.93-1.15-.78-.2-1.6-.34-2.4-.38-2.91-.13-5.77.48-8.66.68-.26.02-.51.09-.77.14-1.54.35-2.96,1.17-4.61,1.11-.11,0-.23.03-.32.1-.94.74-2.11.88-3.21,1.2-.28.08-.49.4-.92.77-.49.13-1.41-.14-1.87.8-.06.12-.34.13-.5.22-.32.18-.65.35-.95.56-.81.55-1.58,1.17-2.41,1.67-.86.51-1.25,1.15-1.17,2.18.53,6.66,1.02,13.32,1.52,19.99.25,3.3.48,6.59.75,9.88.39,4.77.87,9.54,1.21,14.31.31,4.41.51,8.82.72,13.23.4,8.53.55,17.07.41,25.61-.1,5.95-.65,11.86-1.59,17.73-.83,5.2-1.97,10.34-4,15.49ZM725.65,11.55c-.49-.02-.75-.07-.99-.04-2.74.24-5.48.52-8.22.72-4.53.33-9.06.61-13.59.89-6.24.39-12.48.76-18.71,1.15-1.4.09-2.8.23-4.3.36-.04.63-.1,1.18-.09,1.72.06,2.52.15,5.05.23,7.57.15,5.01.31,10.02.44,15.03.17,6.53.31,13.07.46,19.6.15,6.24.31,12.47.43,18.71.11,5.35.26,10.69.22,16.04-.07,9.62-.24,19.23-.45,28.85-.06,2.82-.31,5.63-.56,8.44-.28,3.03-.63,6.05-1.01,9.07-.29,2.24-.7,4.47-1.04,6.71-.2,1.34-.38,2.68-.57,4.07,14.12-.25,28.13-.49,42.11-.74.81-2.45,2.87-22.83,2.49-24.38-.88-.47-1.8-.53-2.79-.45-.84.07-1.75.08-2.53-.19-1-.34-1.94-.31-2.95-.26-.95.05-1.95.02-2.86-.22-.92-.25-1.81-.3-2.74-.26-.89.04-1.79.07-2.66-.03-1.02-.12-2.03-.38-3.04-.59-.06-.01-.11-.09-.2-.17.19-3.3.37-6.62.57-10.05,1.9,0,3.72-.08,5.52.02,2.19.13,4.37.43,6.55.62.61.05,1.23,0,1.92,0,.08-.64.18-1.18.21-1.73.11-1.89.23-3.78.28-5.67.17-6.2.31-12.4.46-18.6.01-.52.03-1.04,0-1.56-.03-.85-.13-.96-.96-1.05-.66-.07-1.34-.08-2-.17-1.69-.21-3.37-.46-5.06-.68-1.8-.24-3.6-.46-5.41-.7-.21-.03-.4-.16-.72-.29.1-4.15.2-8.3.29-12.46.01-.56.34-.8.84-.83.89-.05,1.78-.07,2.67-.1,1.34-.05,2.67-.1,4.01-.16,1.63-.07,3.27-.12,4.9-.22,2.41-.15,4.82-.33,7.23-.51.21-.02.41-.14.75-.26.23-19.03.71-38.06.88-57.22Zm-167.69,85.27c-.23-3.15-.47-6.29-.7-9.44-.34-4.63-1-9.22-1.97-13.76-1.01-4.72-2.26-9.37-3.83-13.94-2.39-6.92-5.52-13.45-10.1-19.22-.67-.84-1.37-1.67-2.11-2.44-.74-.77-1.54-1.5-2.35-2.2-.83-.72-1.7-1.42-2.58-2.08-.8-.6-1.85-.85-2.49-1.71-.72-.04-1.3-.33-1.85-.82-.21-.19-.68-.06-.96-.21-.8-.45-1.65-.67-2.56-.68-.18,0-.39-.05-.53-.15-.8-.55-1.7-.49-2.59-.44-1.78.11-3.57.22-5.34.42-.72.08-1.47.29-2.12.62-.59.31-1.13.68-1.82.73-.19.02-.37.2-.54.33-.22.16-.42.36-.65.51-.28.18-.61.29-.86.5-.96.8-1.88,1.65-2.85,2.44-3.34,2.74-5.75,6.18-7.55,10.06-1.7,3.67-3.07,7.47-4.11,11.4-.96,3.6-1.73,7.23-2.12,10.91-.47,4.35-.71,8.73-.92,13.1-.25,5.39.07,10.76.72,16.11.29,2.39.45,4.8.83,7.18.55,3.52,1.16,7.03,1.87,10.52,1.05,5.18,2.73,10.17,4.63,15.09,1.05,2.72,2.65,5.15,4.42,7.44,1.65,2.13,3.69,3.87,6.04,5.21,1.91,1.09,3.97,1.97,6.13,2.28,4.86.68,9.63.2,14.27-1.5,4.27-1.57,7.95-4.03,11.2-7.14,3.4-3.24,6.01-7.08,7.93-11.35,2.19-4.86,3.76-9.91,4.34-15.24.45-4.17,1.01-8.33,1.1-12.54Zm-128.87-10.87c.12,2.71.19,5.42.39,8.11.15,1.96.49,3.9.72,5.85.18,1.55.22,3.12.52,4.64.79,4.07,1.38,8.2,2.62,12.18,1.04,3.36,1.95,6.79,3.25,10.05,1.36,3.44,2.9,6.85,5.31,9.74,1.09,1.31,2.15,2.69,3.44,3.78,3.16,2.67,6.8,4.31,10.98,4.69,3.21.29,6.38.15,9.54-.5,4.76-.98,8.94-3.12,12.77-6.07,4.16-3.2,7.28-7.23,9.58-11.86,3.16-6.33,4.52-13.17,5.16-20.16.23-2.51.24-5.05.16-7.57-.08-2.74-.35-5.48-.6-8.21-.4-4.4-1.05-8.76-1.98-13.08-.89-4.1-2.01-8.14-3.36-12.11-2.12-6.28-4.75-12.33-8.59-17.79-1.54-2.19-3.28-4.21-5.15-6.13-1.35-1.39-2.88-2.57-4.46-3.64-1.03-.7-2.14-1.3-3.33-1.79-.74-.31-1.43-.64-2.23-.71-.07,0-.2-.03-.2-.05-.1-.89-.82-.47-1.27-.58-.28-.07-.63,0-.87-.14-.89-.52-1.86-.51-2.82-.46-2.04.11-4.08.26-6.12.44-.64.06-1.43-.14-1.77.72-.03.06-.2.08-.31.09-.83.09-1.5.49-2.23.89-2.08,1.15-3.76,2.76-5.45,4.37-3.76,3.59-6.23,8.02-8.08,12.81-2.38,6.19-4.15,12.53-4.82,19.15-.45,4.44-.75,8.88-.79,13.34Zm-33.17,37.08c.69-.07,1.28-.16,1.86-.18,3.27-.09,6.4-.97,9.47-1.98,2.75-.91,5.29-2.29,7.65-4.02,4.02-2.95,7.06-6.64,9.07-11.2,1.98-4.49,2.76-9.23,3.03-14.06.23-4.3.18-8.61-.44-12.89-.39-2.75-.67-5.53-1.23-8.25-.72-3.45-1.62-6.86-2.56-10.25-.79-2.87-1.9-5.62-3.4-8.2-.95-1.63-1.86-3.29-2.82-4.92-2.23-3.75-4.7-7.29-8.55-9.61-.75-.45-1.56-.84-2.2-1.42-.66-.58-1.72-.41-2.19-1.28-.03-.06-.21-.06-.32-.06-1.1-.06-2-1.01-3.19-.73-.06.01-.17-.04-.19-.09-.28-.71-.91-.47-1.43-.53-.81-.09-1.64-.08-2.43-.26-1.41-.33-2.81-.26-4.22-.14-1.22.1-2.45.22-3.66.36-.48.05-.95.17-1.42.29-.89.23-1.77.51-2.67.7-.98.2-1.97.32-2.95.47.03.24.05.4.07.57-.65.06-1.2.11-1.75.18-.29.04-.71.04-.84.22-.59.79-1.51.7-2.28,1-.37.14-.82.23-1.07.5-.29.32-.6.39-.97.44-.36.05-.72.14-1.07.2-.01.23-.02.4-.03.51-.61.17-1.24.19-1.65.5-1.06.81-2.3,1.26-3.44,1.92-.16.09-.47.12-.49.22-.15.76-.84.57-1.37.75-.08.44-.21.87-.24,1.31-.09,1.48-.14,2.97-.21,4.45-.17,3.57-.06,7.12.23,10.68.39,4.88.65,9.78,1.15,14.65.66,6.53,1.48,13.05,2.27,19.58.72,6,1.55,12,2.22,18.01.68,6.09,1.22,12.19,1.02,18.33-.12,3.56-.3,7.11-1.04,10.62-.85,3.98-2.03,7.82-4.26,11.28-.13.2-.2.45-.33.76.28.02.45.05.63.05,7.03,0,14.07-.01,21.1-.02.22,0,.45,0,.67-.02.46-.04.77-.22,1.05-.66,1.92-3.02,3-6.35,3.83-9.8,1.15-4.8,1.51-9.67,1.48-14.58,0-.74.02-1.49.04-2.23.01-.33.05-.66.09-1.15Zm265.81-47.1c-.91-.66-1.98-.82-2.98-1.18-1.18-.42-1.93.11-2.88.98,2.08.07,3.94.14,5.86.2Z"/>
  <path class="cls-2" d="m348.97,116c1.35.21,2.45.7,3.41,1.51,1.57,1.32,2.73,2.85,3.21,4.92.84,3.61.8,7.2.05,10.81-.17.83-.27,1.69-.29,2.54-.05,2.74-.73,5.37-1.49,7.96-.78,2.63-1.69,5.23-2.76,7.75-.94,2.22-2.25,4.27-4.35,5.66-.31.2-.61.47-.96.55-1.77.42-3.53,1.05-5.32,1.14-5.87.31-11.75.45-17.62.59-6.25.15-12.5.23-18.75.34-.82.01-1.64-.03-2.45.05-2.2.22-4.32-.22-6.36-.89-1.02-.33-1.93-1.09-2.82-1.74-.51-.38-.93-.53-1.59-.4-2.67.51-5.34.95-8.03,1.35-2.79.42-5.59.78-8.4,1.12-.57.07-1.18-.04-1.76-.12-.44-.06-.86-.23-1.3-.29-2.19-.33-3.96-1.39-5.37-3.15-.38.34-.75.64-1.08.98-1.66,1.66-3.85,1.99-6,2.41-.62.12-1.26.18-1.88.18-6.07.02-12.13.03-18.2.03-1.88,0-3.65-.64-5.45-1.1-.24-.06-.51-.19-.68-.37-.7-.76-1.52-.7-2.45-.59-4.73.57-9.46,1.07-14.19,1.61-.55.06-1.1.19-1.65.25-2.05.24-4-.29-5.91-.91-1.17-.38-2.13-1.21-2.9-2.19-.46-.58-.89-1.18-1.36-1.83-.21.23-.41.39-.55.6-.84,1.27-2.02,2.17-3.25,3.01-.3.21-.64.39-.99.49-2.44.71-4.89,1.1-7.47.66-2.34-.4-4.73-.52-7.1-.68-2.78-.2-5.59-.14-8.35-.52-2.64-.37-5.34-.22-7.95-.95-1.39-.39-2.56-1.03-3.54-1.99-1.01-.99-1.88-2.12-2.06-3.61,0-.04-.02-.07-.03-.11-.92-2.25-.43-4.45.26-6.63.19-.59.55-1.13.91-1.64.72-1.01,1.29-2.07,1.62-3.27.14-.53.37-1.05.63-1.54.97-1.86,1.58-3.83,1.88-5.9.24-1.65.63-3.27.82-4.92.23-2.06.26-4.14.48-6.19.16-1.54.05-3.08.28-4.62.27-1.82.14-3.7.2-5.56.02-.55.11-1.1.14-1.66.11-1.55.23-3.1.29-4.66.05-1.25,0-2.51,0-3.76,0-.33.12-.65.16-.99.1-.96.19-1.91.27-2.87.17-2.14.24-4.29.53-6.42.32-2.35.84-4.67.8-7.06-.02-.95.27-1.9.42-2.86.56-3.47.95-6.98,1.91-10.39.43-1.52.48-3.15.8-4.71,1.06-5.05,2.17-10.09,3.79-14.99,1.04-3.15,3.43-5.18,6.51-6.27,1.85-.65,3.81-.99,5.81-.89.57.03,1.15-.18,1.72-.32.65-.15,1.28-.39,1.94-.5,2.09-.34,4.18-.63,6.27-.94.25-.04.51-.07.75-.16,1.9-.67,3.84-1.11,5.87-1.2,1.36-.06,2.71-.31,4.02-.77,1.04-.37,2.15-.58,3.24-.8.39-.08.81,0,1.21.07.58.1,1.16.25,1.74.41,2.85.79,4.65,2.63,5.48,5.45.7,2.39.75,4.82.67,7.28-.03.99.13,1.99.21,2.99.04.52.18,1.05.1,1.55-.17,1.12-.04,2.21.07,3.32.12,1.1-.02,2.22.07,3.33.13,1.6.37,3.19.71,4.8.07-.46.17-.92.2-1.38.04-.63.03-1.26.01-1.89-.06-2.5.43-4.94.83-7.39.26-1.57.29-3.18.53-4.75.19-1.28.4-2.59.87-3.78.4-1.01,1.09-1.94,1.83-2.76,1.7-1.88,3.91-3.16,5.94-4.65.81-.59,1.64-1.16,2.45-1.76.72-.53,1.51-.9,2.34-1.24,1.15-.47,2.41-.73,3.4-1.58.22-.19.51-.33.79-.41,1.45-.45,2.92-.85,4.36-1.31.7-.22,1.35-.61,2.06-.79,1.58-.39,3.18-.73,4.78-1.03.87-.16,1.77-.22,2.66-.28,1.3-.09,2.6-.15,3.89-.23,1.11-.07,2.24-.07,3.33-.25,2.72-.45,5.37-.06,7.91.81,1.77.61,3.39,1.65,5.13,2.34,2.03.81,3.52,2.34,5.17,3.64,1.06.84,1.91,1.96,2.83,2.97.71.78,1.38,1.59,2.23,2.57,0-2.55.68-4.72,1.32-6.86.71-2.37,2.4-4,4.75-4.79,1.37-.46,2.81-.71,4.22-1.04.4-.09.8-.17,1.21-.2,2.93-.17,5.86-.31,8.78-.48.89-.05,1.77-.16,2.66-.24.74-.07,1.48-.18,2.22-.19,1.97-.03,3.93.01,5.89-.37,1.08-.21,2.23-.04,3.34-.09.96-.04,1.92-.16,2.88-.24.78-.07,1.55-.18,2.33-.18,1.9-.02,3.78-.02,5.67-.36,1.16-.21,2.37-.05,3.56-.1.89-.04,1.79-.07,2.65-.25,2.58-.53,5.1-.1,7.44.86,2.2.9,3.79,2.62,4.31,5.06.3,1.41.53,2.84.64,4.27.06.79-.16,1.61-.27,2.42-.15,1.1-.39,2.2-.44,3.3-.13,2.59-.2,5.19-.25,7.79-.06,2.63-.11,5.26-.09,7.89.01,1.93.16,3.85.23,5.78.09,2.59.29,5.19.22,7.78-.07,2.7-.81,5.21-3.15,6.93-1.07.79-2.19,1.51-3.33,2.29.76,1.98,1.27,4.09,1.36,6.29.02.59.2,1.17.28,1.76.05.33.14.68.08.99-.27,1.46.09,2.88.24,4.31.26,2.5.68,4.99.73,7.52.05,2.07.36,4.14.67,6.19.22,1.49.25,2.95-.15,4.41-.07.24-.08.5-.14.93Zm-61.74,6.78c.28-.31.58-.63.87-.96,2.22-2.48,4.13-5.18,5.3-8.31,1.62-4.34,2.12-8.88,1.97-13.47-.12-3.67-.38-7.35-.82-10.99-.48-3.9-1.16-7.78-1.91-11.64-.71-3.6-1.8-7.11-2.82-10.64-1.27-4.39-3.59-8.29-5.39-12.42-.03-.07-.08-.13-.12-.19-1.48-2.54-3.34-4.8-5.33-6.94-.69-.74-1.53-1.34-2.33-1.97-.71-.56-1.43-1.15-2.22-1.58-.83-.46-1.76-.73-2.63-1.13-1.65-.75-3.43-1.05-5.18-1.17-2.86-.19-5.72.18-8.53.8-1.49.33-2.99.58-4.48.88-.32.07-.64.16-.96.28-.76.27-1.5.66-2.28.82-1.27.26-2.23,1.3-3.57,1.35-.11,0-.21.2-.34.28-.31.19-.62.45-.96.54-1.06.27-1.74,1.24-2.82,1.44-.1.02-.17.14-.26.2-.46.31-.92.6-1.37.92-.72.51-1.44,1.02-2.13,1.55-.65.49-1.2,1.15-1.91,1.51-.88.44-1.12,1.14-1.21,1.97-.24,2.21-.5,4.43-.64,6.65-.2,3.26-.41,6.52-.43,9.79-.02,4.16.11,8.31.24,12.47.07,2.19.22,4.38.46,6.55.44,3.95.95,7.88,1.48,11.82.73,5.44,1.51,10.88,2.25,16.32.42,3.12.73,6.27,1.22,9.38.43,2.69.24,5.41.51,8.11.03.25-.03.52-.05.78-.26,2.25-.55,4.49-.77,6.74-.27,2.78-1.14,5.34-2.64,7.69-.03.04.03.13.06.27.28,0,.57,0,.86,0,6.25-.01,12.51-.02,18.76-.03q1.76,0,2.65-1.48c.09-.16.18-.33.24-.5.74-1.93,1.75-3.76,1.94-5.89.11-1.21.51-2.4.67-3.61.36-2.69.61-5.39.35-8.11-.04-.46.06-.93.09-1.47,2.06-.13,4.01-.25,5.99-.37.31.86.57,1.59.84,2.31,1.23,3.31,2.26,6.67,2.9,10.15.55,2.97.89,5.93.35,9.1.68-.06,1.33-.08,1.97-.18,7.12-1.16,14.24-2.34,21.35-3.52.87-.14.97-.33.81-1.19-.33-1.68-.83-3.31-1.5-4.88-1.28-3-2.47-6.04-3.87-8.99-1.44-3.05-3.09-6-4.68-9.04Zm50.82-34.77c-5.05.13-9.94.86-14.81,1.01-.09-.17-.16-.24-.16-.3-.22-3.18-.44-6.37-.64-9.55-.02-.35.1-.71.16-1.12,3.58-.51,7.05-1.1,10.51-1.75,3.45-.65,6.91-1.2,10.32-2.01,0-.58.01-1.06,0-1.54-.12-3.75-.25-7.49-.36-11.24-.03-1.15.03-2.3,0-3.45-.04-1.97-.25-3.94-.14-5.89.22-3.7.64-7.39.94-11.09.06-.72.22-1.46-.1-2.19-.33,0-.63-.01-.92,0-3.75.2-7.5.38-11.26.6-3.01.18-6.01.38-9.02.59-2.56.18-5.11.41-7.67.6-5.12.37-10.24.71-15.36,1.07-1.32.09-1.27-.15-1.56,1.47-.04.22-.06.44-.08.66-.21,2.4-.44,4.8-.61,7.21-.14,2.04-.29,4.08-.29,6.12,0,4.19.03,8.39.19,12.58.18,4.6.39,9.2.83,13.78.48,5.06,1.24,10.09,1.88,15.13.73,5.74,1.5,11.48,2.18,17.23.45,3.83.91,7.67,1.11,11.52.26,5.09.09,10.17-1.21,15.15-.71,2.7-1.58,5.33-3.15,7.68-.13.19-.21.42-.38.75.59,0,1.03,0,1.47,0,4.35-.1,8.7-.21,13.06-.31,9.23-.21,18.45-.41,27.68-.6.67-.01,1.12-.23,1.45-.81,1.35-2.4,2.53-4.87,3.16-7.57.21-.9.47-1.8.62-2.71.37-2.27.77-4.54.99-6.82.2-2.1.18-4.23.25-6.34.01-.36-.03-.71-.05-1.09-.28-.06-.46-.12-.63-.12-1.97.03-3.94.05-5.91.12-3.31.12-6.61.27-9.92.42-.59.03-1.18.1-1.78.14-.95.06-1.9.17-2.9-.05-.13-3.31-.25-6.53-.37-9.79,2.39-.54,4.8-.9,7.25-1.09,2.47-.19,4.94-.4,7.44-.6.05-.41.14-.7.12-.98-.54-8.22-1.4-16.41-2.31-24.8Zm-166.84,60.2c.57.09.93.16,1.29.19,2.89.23,5.78.45,8.68.68,4.3.35,8.6.72,12.9,1.07,2,.17,2.19.07,3.23-1.61.02-.03.04-.06.06-.09,1.19-2.1,2.44-4.16,2.87-6.6.21-1.16.33-1.17,1.5-1.2,3.01-.06,6.03-.11,9.04-.16.36,0,.72,0,1,0,.91,3.27,1.42,6.41.77,9.63,1.89.15,24.63-2.28,25.83-2.76,0-1.12.16-2.29-.03-3.4-.4-2.37-1.05-4.7-1.47-7.07-.44-2.5-1.35-4.86-2.15-7.24-1.3-3.86-2.88-7.63-4.33-11.44-1.67-4.37-3.38-8.72-4.96-13.11-1.25-3.49-2.43-7.01-3.47-10.57-1.12-3.84-2.14-7.72-3.01-11.63-.84-3.76-1.5-7.57-2.12-11.37-.34-2.08-.44-4.21-.67-6.31-.53-4.76-.74-9.54-.7-14.33,0-.8,0-1.61,0-2.48-1.86.05-3.56.45-5.26.82-1.6.34-3.21.63-4.82.92-.88.16-1.77.26-2.64.43-2.08.41-4.14,1.01-6.24,1.22-2.95.3-5.73,1.31-8.64,1.71-.41.06-.66.28-.76.7-.17.72-.36,1.44-.54,2.16-1.41,5.65-2.72,11.33-3.7,17.07-1.11,6.44-2.04,12.9-2.63,19.4-.49,5.4-.85,10.81-1.12,16.22-.34,6.93-.58,13.87-1.42,20.77-.31,2.54-.72,5.07-1.58,7.49-.79,2.24-1.62,4.46-2.46,6.69-.22.58-.51,1.15-.84,1.69-.47.79-1,1.55-1.63,2.51Z"/>
  <path class="cls-2" d="m98.3,157c-.34.22-.64.38-.89.59-2.03,1.68-4.52,2.04-7,2.18-7.28.43-14.58.17-21.87.25-.77,0-1.56.13-2.32.28-1.04.2-2.05.14-3.1-.01-2.65-.39-4.87-1.53-6.58-3.62-.46.13-.89.26-1.31.38-2.34.66-4.73.92-7.16.94-3.83.03-7.65.22-11.48.33-1.41.04-2.85-.14-4.23.08-2.89.45-5.8.37-8.68.23-2.13-.1-4.3-.51-6-2.05-1.09-.98-2.06-2.07-2.44-3.52-.45-1.72-.77-3.47-1.21-5.19-.44-1.72-.95-3.43-1.44-5.14-.19-.68-.43-1.34-.64-2.01-.58-1.83-1.17-3.66-1.74-5.5-.42-1.34-.8-2.7-1.21-4.05-.67-2.16-1.36-4.31-2.02-6.47-.26-.85-.46-1.72-.67-2.59-.71-2.96-1.45-5.91-2.11-8.88-.35-1.59-.56-3.21-.86-4.82-.37-1.97-.82-3.92-1.14-5.9-.29-1.83-.43-3.68-.64-5.52-.03-.26,0-.52-.05-.78-.21-1.17-.26-2.32-.23-3.52.05-1.77-.27-3.54-.43-5.32-.07-.74-.24-1.49-.16-2.21.24-2.45-.13-4.89-.02-7.33.1-2.15,0-4.3,0-6.46,0-.4.1-.81.14-1.21.04-.48.14-.97.09-1.44-.31-2.83.37-5.53,1.12-8.2.32-1.15,1.14-2.08,2.05-2.86,1.35-1.15,2.87-1.94,4.65-2.27,2.12-.39,4.21-.92,6.3-1.43.75-.18,1.47-.52,2.23-.68,2.29-.48,4.59-.88,6.88-1.37,1.3-.28,2.58-.66,3.87-.99,2.08-.52,4.16-1.07,6.26-1.54.63-.14,1.31-.02,1.97-.02.04,0,.07.02.11.03,1.57.33,3.16.61,4.31,1.78.15-.05.24-.05.29-.1,1.56-1.5,3.57-1.87,5.57-2.31,2.05-.46,4.11-.66,6.2-.59,1.49.05,2.97.03,4.44-.32.46-.11.96-.11,1.44-.12,1.64-.01,3.28.03,4.91-.01,1.58-.04,3.11.15,4.63.55,1.12.29,2.25.52,3.03,1.37.17-.04.27-.03.31-.08,1.53-1.57,3.51-2.19,5.59-2.51.53-.08,1.11,0,1.65.09,2.78.48,5.55.98,8.33,1.48.51.09,1.03.17,1.53.31,1.02.28,2.02.34,3.08.26.86-.06,1.76.21,2.63.36.98.16,1.96.34,2.86.5.47-.81.82-1.5,1.26-2.13,1.2-1.71,2.77-2.82,4.88-3.23,1.43-.28,2.83-.62,4.3-.55.22.01.45,0,.67-.05,2.01-.52,4.06-.36,6.11-.4.81-.02,1.62-.16,2.44-.22,1.11-.08,2.22-.19,3.33-.2,1.53-.01,3.04-.08,4.55-.33,1.05-.18,2.15-.07,3.23-.13,1.41-.08,2.81-.24,4.22-.31,1.41-.07,2.82-.07,4.23-.14.96-.05,1.92-.18,2.88-.24,1.15-.08,2.3-.16,3.45-.19,1.63-.05,3.26.05,4.89-.29,2.56-.54,5.09-.08,7.44.85,2.17.86,3.71,2.56,4.35,4.91.17.61.3,1.23.44,1.84.33,1.4.31,2.78-.03,4.19-.54,2.23-1.3,4.41-1.44,6.74-.12,1.92-.41,3.83-.62,5.75-.11,1.03-.22,2.06-.33,3.09-.04.37-.06.75-.16,1.1-.65,2.35-.7,4.77-.7,7.18,0,2.42-.17,4.81-.51,7.2-.14,1.02,0,2.07-.02,3.11-.02.96-.05,1.92-.17,2.87-.1.77-.35,1.52-.52,2.28-.31,1.36-1.12,2.46-2.14,3.31-1.18,1-2.54,1.79-3.92,2.74.02.1.07.34.14.57.69,2.21.89,4.51,1.13,6.79.15,1.36.08,2.74.22,4.1.14,1.44.42,2.86.63,4.29.04.26.1.52.08.77-.23,2.27.52,4.4.86,6.59.08.49.36.74.87.88,2.93.77,4.65,2.84,5.57,5.57.54,1.61.95,3.28.93,5.02,0,.33.12.66.13.99.02.77.07,1.55,0,2.31-.17,1.84-.54,3.68-.58,5.52-.06,2.86-.92,5.55-1.41,8.32-.31,1.74-1.07,3.23-2.18,4.57-1.43,1.72-3.08,3.07-5.38,3.52-1.36.26-2.69.46-4.08.48-5.88.1-11.76.28-17.64.4-7.66.15-15.33.33-22.99.38-2.15.01-4.29-.46-6.03-1.95-.36-.31-.75-.6-1.2-.96Zm-59.35-35.64l-.25-.02c-.04-.06-.1-.11-.11-.18-.79-3.47-1.68-6.92-2.34-10.42-.57-2.98-.99-6-1.28-9.03-.44-4.58-.74-9.17-1.03-13.76-.12-1.81-.09-3.64-.08-5.46.03-3.12,0-6.24.18-9.35.24-4.19.65-8.36.98-12.54.04-.46,0-.93,0-1.39-.9-.2-1.61-.04-2.32.21-1.48.51-2.96,1-4.55,1.01-.32,0-.65.13-.97.21-.96.26-1.92.54-2.89.78-.61.15-1.26.18-1.85.38-1.41.46-2.81.94-4.33.94-.39,0-.79.2-1.17.33-1.27.44-2.55.84-3.9.87-.84.02-1.58.29-2.31.71-.58.34-.87.71-.88,1.39-.06,2.67-.24,5.34-.23,8.02.02,4.86.14,9.72.23,14.59,0,.56.02,1.12.08,1.67.4,3.65.84,7.3,1.23,10.95.51,4.77,1.44,9.47,2.58,14.12,1.8,7.39,4.23,14.61,6.42,21.89.79,2.63,1.5,5.28,2.2,7.93.38,1.43.64,2.88.98,4.43.44.03.91.09,1.38.08,2.64-.1,5.28-.26,7.92-.32,5.1-.12,10.19-.2,15.29-.29.89-.02,1.79,0,2.68-.03,1.19-.05,1.39-.26,1.6-1.4.17-.91.38-1.81.58-2.71.22-1.01.46-2.01.66-3.03.09-.47.07-.96.16-1.43,1.09-6.1.91-12.28,1.07-18.43.02-.98,0-1.96,0-2.93.32.24.44.5.53.77.48,1.48.95,2.97,1.42,4.45,1.55,4.84,3.13,9.67,4.63,14.52.78,2.51,1.69,5,1.73,7.68,0,.15.07.29.09.43.1.92.2,1.83.29,2.75.04.46.05.93.08,1.42,1,0,1.88,0,2.77,0,7.93-.07,15.85-.14,23.78-.21,2.16-.02,2.25-.07,2.99-2.14.1-.28.16-.57.26-.85.26-.81.55-1.62.79-2.43.19-.64.36-1.28.46-1.94.2-1.39.25-2.82.54-4.19.65-3.04.71-6.12.69-9.19-.05-7.5-.19-15-.22-22.5-.02-4.64.09-9.28.53-13.9.51-5.32.9-10.65,1.79-15.93.91-5.38,1.81-10.76,2.99-16.08.18-.82.09-1.08-.75-1.32-.85-.24-1.74-.34-2.62-.49-.8-.14-1.61-.24-2.42-.38-.69-.12-1.38-.28-2.07-.39-2.38-.37-4.77-.71-7.15-1.07-.15-.02-.29-.08-.43-.11-.69-.12-1.38-.24-2.08-.37-.99-.17-1.98-.3-2.95-.53-.95-.22-1.88-.4-2.96-.22-4.72,21.71-6.25,43.61-4.28,65.76-.16-.15-.24-.31-.3-.48-.51-1.55-1.08-3.08-1.52-4.65-.91-3.25-1.76-6.52-2.6-9.79-1.58-6.13-2.36-12.39-2.96-18.67-.34-3.54-.43-7.11-.56-10.67-.08-2.22-.12-4.46-.03-6.68.18-4.37.47-8.74.7-13.12.02-.35-.03-.71-.05-1.09-1.69.05-3.25.07-4.8.14-2.75.12-5.49.28-8.24.42-1.75.09-3.49.16-5.24.29-.94.07-.93.11-1.19,1.02-.04.14-.08.29-.11.43-1.16,5.78-2.38,11.55-3.44,17.35-.75,4.12-1.36,8.27-1.87,12.43-.56,4.53-.96,9.08-1.37,13.62-.18,2.03-.24,4.07-.32,6.11-.11,2.97-.19,5.93-.26,8.9-.03,1.03,0,2.07,0,3.11Zm87.26-19.14c-.08-2.46-.17-4.86-.24-7.27-.01-.48,0-.97.03-1.45.06-.99.2-1.12,1.18-1.22,2.15-.22,4.29-.41,6.44-.67,1.62-.2,3.22-.5,4.84-.72,1.54-.22,3.1-.38,4.64-.61.66-.1,1.29-.34,1.94-.45,2.31-.37,2.07.05,2.07-2.32-.01-6.21.54-12.39,1.13-18.56.18-1.95.57-3.89.88-5.83.54-3.37,1.08-6.74,1.62-10.11.07-.46.14-.92.23-1.45-.36-.04-.57-.09-.79-.08-1.67.07-3.34.15-5.01.24-4.27.23-8.55.44-12.82.69-5.68.34-11.36.71-17.04,1.07-2.93.19-5.87.39-8.8.6-1.14.08-1.17.12-1.36,1.21-.4,2.3-.79,4.61-1.16,6.91-.94,5.83-1.52,11.71-1.88,17.6-.54,8.87-.6,17.74.38,26.59.43,3.91.88,7.82,1.44,11.71.65,4.55,1.41,9.09,2.14,13.64.54,3.39.58,6.8.57,10.22,0,2.88-.25,5.7-1.17,8.45-.06.17-.04.36-.08.67.53,0,1,0,1.47,0,5.47-.13,10.94-.27,16.41-.38,8-.16,16-.31,24-.44.74-.01,1.18-.27,1.5-.9.26-.52,1.5-4.7,1.51-5.32,0-.26,0-.52.01-.78.03-.85,0-1.72.12-2.56.43-2.92.4-5.84.18-8.77-.02-.28-.11-.56-.19-.92-7.12.08-14.18.16-21.39.25-.26-2.64-.5-5.14-.75-7.74,2.5-.15,4.94-.32,7.39-.44,2.47-.13,4.95-.18,7.5-.36-.17-1.83-.31-3.53-.49-5.22-.5-4.8-1.03-9.59-1.52-14.39-.13-1.23-.09-1.27-1.3-1.23-2.79.09-5.58.25-8.37.34-1.71.05-3.42,0-5.28,0Z"/>
  <path class="cls-1" d="m669.49,69.53c-.27-.08-.43-.09-.54-.16-.74-.54-1.47-1.08-2.2-1.63-.09-.07-.15-.18-.25-.22-1.3-.52-2.6-1.05-3.92-1.53-.56-.2-1.16-.26-1.73-.44-1.48-.47-2.98-.6-4.52-.32-.59.11-1.19.14-1.76.27-.34.08-.66.26-.98.41-.13.06-.23.2-.37.23-2.4.64-3.82,2.52-5.3,4.27-1.33,1.57-2.2,3.43-3.01,5.31-1.55,3.61-2.38,7.4-3.07,11.25-.92,5.16-.87,10.35-.59,15.54.23,4.27.87,8.49,2.44,12.52.7,1.78,1.66,3.38,2.89,4.85,3.06,3.63,9.16,2.72,11.5.06.23-.27.51-.6.54-.92.18-1.84.3-3.69.44-5.61-.48-.07-.84-.15-1.2-.18-3.08-.24-6.16-.48-9.23-.72-.89-.07-1.02-.18-1.03-1.08,0-1.26.05-2.52.06-3.79.05-5.98.1-11.96.12-17.93,0-1.08-.1-2.15-.14-3.23-.02-.48,0-.95,0-1.52.47-.04.83-.1,1.19-.08,1.37.08,2.75.19,4.12.28.74.05,1.48.08,2.23.08,3.35-.02,6.69-.09,10.04-.08,1.22,0,2.45.09,3.67.23,1.76.2,3.48-.03,5.22-.19.69-.07,1.4-.01,2.25-.01.09.6.22,1.13.23,1.67.12,3.82.23,7.64.32,11.47.21,9.32.26,18.64-.03,27.96-.12,3.82-.44,7.63-.65,11.45-.04.73-.29,1.33-.73,1.93-1.6,2.22-3.8,3.74-5.99,5.28-3.17,2.23-6.68,3.69-10.34,4.88-5.11,1.66-10.32,2.46-15.69,2.31-5.11-.14-9.76-1.58-13.73-4.84-2.37-1.95-4.24-4.33-5.66-7.08-3.05-5.89-4.49-12.25-5.41-18.73-.9-6.4-1.4-12.84-1.27-19.31.08-4.12.01-8.24.1-12.36.06-2.82.14-5.65.45-8.45.42-3.8.53-7.62,1.22-11.4.59-3.21.86-6.47,1.43-9.68.8-4.53,1.86-9.01,3.1-13.44,1.27-4.54,2.81-9.01,4.68-13.33,1.36-3.16,2.81-6.3,4.76-9.17,1.18-1.73,2.36-3.48,3.7-5.08,1.15-1.38,2.42-2.7,3.82-3.81.9-.71,1.74-1.64,2.97-1.89.14-.03.28-.1.4-.19,2.17-1.5,4.67-1.85,7.2-1.98,1.48-.08,2.97.04,4.46.15.57.05,1.13.33,1.69.52.1.03.19.14.3.15,1.41.13,2.54.95,3.75,1.56.79.4,1.51.92,2.27,1.39,1.96,1.21,3.24,3.06,4.56,4.86.48.66.78,1.43.78,2.29,0,1.56.01,3.12.04,4.68.06,3.41.16,6.83.2,10.24.09,7.24.15,14.48.22,21.72.03,3.23.04,6.46.05,9.69,0,.26-.04.51-.07.9Z"/>
  <path class="cls-1" d="m556.03,149.52c2.03-5.15,3.17-10.29,4-15.49.94-5.87,1.49-11.78,1.59-17.73.15-8.54,0-17.08-.41-25.61-.21-4.41-.41-8.83-.72-13.23-.34-4.78-.82-9.54-1.21-14.31-.27-3.29-.5-6.59-.75-9.88-.5-6.66-.99-13.33-1.52-19.99-.08-1.03.31-1.67,1.17-2.18.84-.5,1.61-1.12,2.41-1.67.3-.21.63-.39.95-.56.16-.09.44-.09.5-.22.46-.94,1.38-.67,1.87-.8.42-.36.64-.68.92-.77,1.1-.32,2.26-.46,3.21-1.2.08-.06.21-.1.32-.1,1.64.06,3.07-.76,4.61-1.11.25-.06.51-.13.77-.14,2.89-.19,5.75-.81,8.66-.68.81.04,1.62.18,2.4.38,1.32.33,2.64.7,3.93,1.15.75.26,1.47.67,2.15,1.09.9.55,1.76,1.17,2.62,1.79.41.29.79.63,1.14.99,1.38,1.44,2.98,2.65,4.11,4.33.66.97,1.52,1.81,2.16,2.8,1.16,1.81,2.22,3.68,3.31,5.53,2.14,3.63,3.58,7.57,5.04,11.49,1.89,5.05,3.25,10.27,4.32,15.54.8,3.95,1.43,7.95,1.83,11.99.48,4.89.75,9.77.8,14.67.06,5.88-.45,11.72-1.59,17.49-1.03,5.23-2.6,10.3-5.27,14.95-2.15,3.76-4.82,7.11-8.04,10.05-4.17,3.8-9.05,6.33-14.26,8.33-4.65,1.79-9.49,2.69-14.43,3.2-3.34.34-6.68.48-10.03.37-2.14-.07-4.28-.29-6.57-.45Zm27.57-81.55c0,.48-.01.81,0,1.14.22,5.71.52,11.42.63,17.14.11,5.94.06,11.88.05,17.82,0,2.86.01,5.72-.13,8.58-.17,3.41-.49,6.81-.74,10.22-.02.31,0,.63,0,1,2.66-.84,4.81-2.23,6.46-4.34,1.8-2.3,3.26-4.79,4.18-7.57,1.8-5.44,2.7-11.02,2.29-16.77-.11-1.52-.16-3.04-.29-4.56-.4-4.87-1.35-9.63-3.35-14.12-1.41-3.16-3.03-6.15-6.33-7.87-.9-.47-1.73-.52-2.76-.65Z"/>
  <path class="cls-1" d="m725.65,11.55c-.17,19.17-.64,38.2-.88,57.22-.34.12-.54.24-.75.26-2.41.18-4.82.36-7.23.51-1.63.1-3.27.15-4.9.22-1.34.06-2.67.11-4.01.16-.89.03-1.78.05-2.67.1-.5.03-.83.27-.84.83-.09,4.15-.19,8.31-.29,12.46.32.13.51.26.72.29,1.8.24,3.6.47,5.41.7,1.69.22,3.37.47,5.06.68.66.08,1.34.09,2,.17.83.09.93.2.96,1.05.02.52,0,1.04,0,1.56-.15,6.2-.29,12.4-.46,18.6-.05,1.89-.17,3.78-.28,5.67-.03.55-.13,1.09-.21,1.73-.69,0-1.31.05-1.92,0-2.19-.2-4.36-.5-6.55-.62-1.8-.11-3.62-.02-5.52-.02-.19,3.43-.38,6.75-.57,10.05.09.08.14.15.2.17,1.01.21,2.02.47,3.04.59.88.1,1.78.07,2.66.03.93-.04,1.82.01,2.74.26.91.25,1.91.27,2.86.22,1.01-.05,1.95-.08,2.95.26.78.26,1.69.26,2.53.19.99-.08,1.91-.03,2.79.45.38,1.55-1.68,21.93-2.49,24.38-13.97.24-27.98.49-42.11.74.19-1.39.37-2.73.57-4.07.34-2.24.75-4.46,1.04-6.71.39-3.02.74-6.04,1.01-9.07.26-2.81.5-5.63.56-8.44.2-9.61.37-19.23.45-28.85.04-5.35-.12-10.69-.22-16.04-.12-6.24-.29-12.47-.43-18.71-.15-6.53-.29-13.07-.46-19.6-.13-5.01-.29-10.02-.44-15.03-.08-2.52-.16-5.05-.23-7.57-.01-.55.06-1.09.09-1.72,1.5-.13,2.9-.27,4.3-.36,6.24-.39,12.48-.76,18.71-1.15,4.53-.28,9.06-.57,13.59-.89,2.74-.2,5.48-.48,8.22-.72.25-.02.5.02.99.04Z"/>
  <path class="cls-1" d="m557.96,96.82c-.09,4.21-.65,8.37-1.1,12.54-.58,5.34-2.14,10.38-4.34,15.24-1.93,4.27-4.53,8.1-7.93,11.35-3.26,3.11-6.94,5.57-11.2,7.14-4.64,1.7-9.41,2.18-14.27,1.5-2.17-.31-4.22-1.19-6.13-2.28-2.35-1.34-4.39-3.08-6.04-5.21-1.77-2.29-3.37-4.72-4.42-7.44-1.9-4.92-3.58-9.92-4.63-15.09-.71-3.49-1.32-7-1.87-10.52-.37-2.38-.53-4.79-.83-7.18-.65-5.35-.97-10.73-.72-16.11.2-4.37.45-8.75.92-13.1.4-3.68,1.17-7.32,2.12-10.91,1.04-3.92,2.41-7.72,4.11-11.4,1.79-3.88,4.2-7.32,7.55-10.06.97-.79,1.89-1.64,2.85-2.44.25-.21.58-.32.86-.5.23-.15.43-.35.65-.51.17-.12.35-.31.54-.33.7-.06,1.23-.43,1.82-.73.64-.33,1.39-.54,2.12-.62,1.77-.2,3.56-.31,5.34-.42.89-.05,1.79-.11,2.59.44.14.1.35.15.53.15.91.02,1.75.23,2.56.68.27.15.75.02.96.21.54.49,1.13.78,1.85.82.63.86,1.68,1.1,2.49,1.71.88.66,1.75,1.35,2.58,2.08.81.7,1.61,1.43,2.35,2.2.74.78,1.44,1.6,2.11,2.44,4.58,5.77,7.71,12.3,10.1,19.22,1.58,4.57,2.82,9.22,3.83,13.94.97,4.54,1.63,9.13,1.97,13.76.23,3.15.46,6.29.7,9.44Zm-22.06-.32c-.05-5.02-1.5-12.27-3.56-16.76-.6-1.31-1.38-2.56-2.25-3.7-1.15-1.52-2.5-2.89-4.59-3-.72-.04-1.45.19-2.18.22-1.22.05-2.02.79-2.79,1.59-1.12,1.17-1.86,2.58-2.44,4.07-1.58,4.1-1.9,8.37-1.64,12.71.08,1.3.24,2.59.35,3.88.39,4.36,1.34,8.58,3.13,12.58.75,1.68,1.71,3.21,3.09,4.46.39.35,1.9,1.26,2.17,1.27,1,.01,2.01.02,3.01,0,.21,0,.6-.13.59-.18-.03-.53.39-.41.66-.53.4-.17.82-.35,1.16-.61,1.5-1.19,2.42-2.81,3.13-4.53,1.56-3.77,1.95-7.75,2.15-11.45Z"/>
  <path class="cls-1" d="m429.08,85.95c.05-4.46.34-8.91.79-13.34.67-6.62,2.45-12.97,4.82-19.15,1.84-4.79,4.31-9.21,8.08-12.81,1.69-1.61,3.37-3.22,5.45-4.37.73-.4,1.4-.8,2.23-.89.11-.01.28-.03.31-.09.34-.86,1.14-.66,1.77-.72,2.04-.18,4.08-.33,6.12-.44.96-.05,1.93-.06,2.82.46.24.14.58.07.87.14.45.12,1.16-.3,1.27.58,0,.03.13.05.2.05.8.07,1.49.41,2.23.71,1.19.49,2.3,1.09,3.33,1.79,1.59,1.08,3.11,2.25,4.46,3.64,1.87,1.92,3.61,3.94,5.15,6.13,3.84,5.46,6.46,11.51,8.59,17.79,1.34,3.97,2.47,8.01,3.36,12.11.94,4.32,1.58,8.69,1.98,13.08.25,2.73.52,5.47.6,8.21.08,2.52.07,5.06-.16,7.57-.64,6.99-2,13.83-5.16,20.16-2.31,4.62-5.43,8.66-9.58,11.86-3.83,2.95-8.02,5.09-12.77,6.07-3.15.65-6.33.79-9.54.5-4.18-.37-7.82-2.02-10.98-4.69-1.29-1.09-2.34-2.48-3.44-3.78-2.42-2.89-3.95-6.3-5.31-9.74-1.3-3.27-2.21-6.69-3.25-10.05-1.23-3.98-1.82-8.1-2.62-12.18-.3-1.52-.33-3.1-.52-4.64-.23-1.95-.57-3.9-.72-5.85-.2-2.7-.27-5.41-.39-8.11Zm22.2,5.62c.33,2.73.61,5.46,1.01,8.17.54,3.69,1.62,7.23,3.35,10.56.81,1.56,1.82,3.01,3.28,4.02.68.47,1.52.97,2.3.99,1.32.04,2.66.13,3.96-.65.98-.59,1.91-1.18,2.51-2.11.76-1.18,1.51-2.4,2.03-3.69,1.53-3.83,1.79-7.9,1.58-11.94-.23-4.47-1.31-8.8-3.02-12.95-1.06-2.59-2.38-5.03-4.55-6.91-.92-.8-1.91-1.45-3.18-1.4-.77.03-1.52.25-2.29.3-1.24.09-2.03.88-2.81,1.7-1.84,1.92-2.75,4.33-3.27,6.83-.48,2.31-.62,4.7-.91,7.08Z"/>
  <path class="cls-1" d="m395.92,123.03c-.04.5-.08.82-.09,1.15-.02.74-.05,1.49-.04,2.23.04,4.91-.32,9.78-1.48,14.58-.83,3.45-1.91,6.78-3.83,9.8-.28.44-.59.63-1.05.66-.22.02-.45.02-.67.02-7.03,0-14.07.02-21.1.02-.17,0-.35-.03-.63-.05.13-.31.2-.55.33-.76,2.23-3.46,3.41-7.3,4.26-11.28.75-3.51.93-7.06,1.04-10.62.2-6.14-.34-12.24-1.02-18.33-.67-6.01-1.5-12-2.22-18.01-.78-6.52-1.6-13.04-2.27-19.58-.5-4.87-.76-9.77-1.15-14.65-.28-3.56-.4-7.12-.23-10.68.07-1.48.12-2.97.21-4.45.03-.43.15-.86.24-1.31.53-.18,1.22,0,1.37-.75.02-.1.33-.13.49-.22,1.13-.66,2.37-1.11,3.44-1.92.41-.31,1.04-.33,1.65-.5,0-.11.02-.28.03-.51.35-.07.71-.15,1.07-.2.37-.05.68-.12.97-.44.24-.27.7-.36,1.07-.5.77-.3,1.7-.21,2.28-1,.13-.18.55-.18.84-.22.55-.07,1.11-.12,1.75-.18-.02-.17-.04-.33-.07-.57.98-.15,1.97-.27,2.95-.47.9-.19,1.78-.47,2.67-.7.47-.12.94-.23,1.42-.29,1.22-.14,2.44-.26,3.66-.36,1.41-.12,2.81-.18,4.22.14.79.18,1.62.17,2.43.26.51.06,1.15-.18,1.43.53.02.05.14.1.19.09,1.19-.28,2.09.66,3.19.73.11,0,.29,0,.32.06.47.86,1.53.69,2.19,1.28.64.57,1.45.96,2.2,1.42,3.85,2.32,6.32,5.86,8.55,9.61.96,1.62,1.87,3.28,2.82,4.92,1.5,2.58,2.61,5.34,3.4,8.2.94,3.4,1.84,6.81,2.56,10.25.57,2.72.84,5.5,1.23,8.25.61,4.28.67,8.59.44,12.89-.26,4.84-1.05,9.58-3.03,14.06-2.01,4.56-5.05,8.26-9.07,11.2-2.36,1.73-4.9,3.11-7.65,4.02-3.06,1.01-6.19,1.89-9.47,1.98-.59.02-1.17.11-1.86.18Zm2.74-25.86c1.31.02,2.02-.72,2.75-1.49,1.61-1.69,2.27-3.82,2.75-5.99.5-2.22.56-4.48.28-6.75-.33-2.63-.87-5.19-2.07-7.58-.83-1.66-1.99-3.07-3.59-4.02-.89-.53-1.95-.71-3.01-.52-.62.11-1.22.34-1.84.45-.84.15-1.56.46-2.04,1.2.52,4.25,1.82,23.86,2.75,25.6,1.42-.09,2.89-.19,4.51-.29-.2-.24-.28-.34-.49-.6Z"/>
  <path class="cls-1" d="m661.73,75.93c-1.93-.07-3.79-.13-5.86-.2.95-.87,1.71-1.4,2.88-.98,1,.36,2.07.52,2.98,1.18Z"/>
  <path class="cls-1" d="m287.24,122.79c1.59,3.05,3.23,6,4.68,9.04,1.4,2.95,2.58,5.99,3.87,8.99.67,1.57,1.18,3.2,1.5,4.88.17.85.07,1.04-.81,1.19-7.12,1.18-14.24,2.35-21.35,3.52-.64.1-1.29.12-1.97.18.53-3.17.2-6.13-.35-9.1-.65-3.48-1.67-6.84-2.9-10.15-.27-.73-.53-1.46-.84-2.31-1.97.12-3.93.24-5.99.37-.04.53-.14,1.01-.09,1.47.26,2.72.01,5.42-.35,8.11-.16,1.21-.56,2.39-.67,3.61-.19,2.13-1.21,3.96-1.94,5.89-.07.17-.15.34-.24.5q-.89,1.49-2.65,1.48c-6.25,0-12.51.02-18.76.03-.29,0-.59,0-.86,0-.03-.14-.08-.23-.06-.27,1.5-2.35,2.37-4.91,2.64-7.69.22-2.25.51-4.49.77-6.74.03-.26.08-.52.05-.78-.27-2.7-.08-5.41-.51-8.11-.5-3.11-.8-6.25-1.22-9.38-.74-5.44-1.52-10.88-2.25-16.32-.53-3.94-1.04-7.87-1.48-11.82-.24-2.18-.39-4.37-.46-6.55-.14-4.16-.26-8.31-.24-12.47.02-3.26.22-6.53.43-9.79.14-2.22.41-4.43.64-6.65.09-.83.32-1.53,1.21-1.97.71-.35,1.26-1.01,1.91-1.51.7-.53,1.42-1.04,2.13-1.55.45-.32.92-.61,1.37-.92.09-.06.16-.19.26-.2,1.08-.2,1.76-1.17,2.82-1.44.35-.09.65-.35.96-.54.12-.08.22-.27.34-.28,1.34-.05,2.3-1.1,3.57-1.35.78-.16,1.52-.55,2.28-.82.31-.11.63-.21.96-.28,1.49-.3,2.99-.56,4.48-.88,2.81-.62,5.67-.99,8.53-.8,1.75.11,3.54.41,5.18,1.17.87.4,1.8.67,2.63,1.13.79.44,1.5,1.02,2.22,1.58.8.63,1.64,1.23,2.33,1.97,1.99,2.14,3.85,4.4,5.33,6.94.04.06.09.12.12.19,1.81,4.13,4.12,8.03,5.39,12.42,1.02,3.53,2.12,7.04,2.82,10.64.76,3.86,1.44,7.74,1.91,11.64.45,3.64.7,7.32.82,10.99.15,4.59-.34,9.13-1.97,13.47-1.17,3.14-3.08,5.83-5.3,8.31-.29.33-.59.65-.87.96Zm-26.47-14.36c2.06.22,3.89-.52,5.6-1.35,3-1.46,4.65-4.03,5.43-7.22.5-2.05.43-4.11.27-6.19-.29-3.69-1.15-7.25-2.52-10.68-.92-2.31-2.28-4.32-4.43-5.72-1.74-1.14-3.61-1.3-5.53-.64-.65.22-1.21.68-1.94,1.1.64,10.19,1.47,20.44,3.12,30.72Z"/>
  <path class="cls-1" d="m338.05,88.01c.9,8.4,1.77,16.58,2.31,24.8.02.29-.07.58-.12.98-2.5.2-4.97.41-7.44.6-2.44.19-4.85.55-7.25,1.09.12,3.27.25,6.48.37,9.79.99.21,1.95.11,2.9.05.59-.04,1.18-.12,1.78-.14,3.31-.15,6.61-.3,9.92-.42,1.97-.07,3.94-.09,5.91-.12.18,0,.35.07.63.12.02.38.06.74.05,1.09-.07,2.11-.05,4.24-.25,6.34-.22,2.28-.62,4.55-.99,6.82-.15.91-.41,1.81-.62,2.71-.63,2.7-1.8,5.17-3.16,7.57-.33.59-.78.8-1.45.81-9.23.19-18.45.39-27.68.6-4.35.1-8.7.21-13.06.31-.44.01-.88,0-1.47,0,.17-.33.25-.56.38-.75,1.57-2.35,2.45-4.98,3.15-7.68,1.31-4.98,1.47-10.06,1.21-15.15-.2-3.85-.66-7.69-1.11-11.52-.68-5.75-1.45-11.49-2.18-17.23-.64-5.04-1.4-10.07-1.88-15.13-.44-4.58-.65-9.18-.83-13.78-.16-4.19-.19-8.39-.19-12.58,0-2.04.15-4.08.29-6.12.17-2.4.4-4.8.61-7.21.02-.22.04-.44.08-.66.29-1.62.24-1.38,1.56-1.47,5.12-.37,10.24-.71,15.36-1.07,2.56-.18,5.11-.41,7.67-.6,3.01-.21,6.01-.42,9.02-.59,3.75-.22,7.5-.4,11.26-.6.29-.02.59,0,.92,0,.32.73.16,1.47.1,2.19-.3,3.7-.72,7.39-.94,11.09-.12,1.95.1,3.93.14,5.89.02,1.15-.04,2.3,0,3.45.11,3.75.24,7.49.36,11.24.02.48,0,.96,0,1.54-3.41.81-6.87,1.36-10.32,2.01-3.46.66-6.94,1.24-10.51,1.75-.06.41-.18.76-.16,1.12.2,3.18.42,6.37.64,9.55,0,.07.07.13.16.3,4.87-.15,9.76-.88,14.81-1.01Z"/>
  <path class="cls-1" d="m171.22,148.21c.63-.96,1.16-1.72,1.63-2.51.32-.54.62-1.1.84-1.69.84-2.22,1.67-4.45,2.46-6.69.85-2.43,1.27-4.95,1.58-7.49.84-6.9,1.08-13.84,1.42-20.77.26-5.41.63-10.82,1.12-16.22.59-6.5,1.52-12.97,2.63-19.4.99-5.74,2.29-11.42,3.7-17.07.18-.72.37-1.44.54-2.16.1-.42.35-.64.76-.7,2.91-.41,5.69-1.42,8.64-1.71,2.1-.21,4.16-.81,6.24-1.22.87-.17,1.76-.27,2.64-.43,1.61-.29,3.22-.58,4.82-.92,1.7-.37,3.4-.76,5.26-.82,0,.88,0,1.68,0,2.48-.04,4.79.18,9.56.7,14.33.23,2.1.33,4.23.67,6.31.62,3.8,1.28,7.61,2.12,11.37.87,3.91,1.89,7.79,3.01,11.63,1.04,3.56,2.21,7.08,3.47,10.57,1.58,4.4,3.3,8.75,4.96,13.11,1.45,3.81,3.03,7.58,4.33,11.44.8,2.38,1.71,4.74,2.15,7.24.42,2.37,1.06,4.7,1.47,7.07.19,1.11.03,2.28.03,3.4-1.2.48-23.94,2.91-25.83,2.76.65-3.22.14-6.36-.77-9.63-.28,0-.64,0-1,0-3.01.05-6.03.1-9.04.16-1.17.02-1.29.03-1.5,1.2-.43,2.44-1.69,4.5-2.87,6.6-.02.03-.04.06-.06.09-1.04,1.68-1.23,1.78-3.23,1.61-4.3-.36-8.6-.72-12.9-1.07-2.89-.24-5.78-.45-8.68-.68-.36-.03-.72-.11-1.29-.19Zm30.42-46.62c-.09,0-.18.01-.27.02.08,7.48.15,14.96.23,22.41,1.2.25,5.77.09,7.27-.26-2.54-7.36-5.2-14.66-7.23-22.18Z"/>
  <path class="cls-1" d="m38.95,121.37c0-1.04-.02-2.07,0-3.11.07-2.97.15-5.94.26-8.9.07-2.04.13-4.08.32-6.11.41-4.55.81-9.1,1.37-13.62.51-4.16,1.12-8.31,1.87-12.43,1.06-5.8,2.29-11.57,3.44-17.35.03-.15.07-.29.11-.43.25-.91.25-.95,1.19-1.02,1.74-.12,3.49-.2,5.24-.29,2.75-.14,5.49-.3,8.24-.42,1.56-.07,3.11-.09,4.8-.14.02.38.07.73.05,1.09-.23,4.37-.52,8.74-.7,13.12-.09,2.22-.05,4.46.03,6.68.13,3.56.22,7.13.56,10.67.61,6.28,1.38,12.54,2.96,18.67.84,3.27,1.7,6.54,2.6,9.79.44,1.57,1.01,3.11,1.52,4.65.06.17.14.32.3.48-1.97-22.15-.44-44.05,4.28-65.76,1.08-.18,2.01,0,2.96.22.97.23,1.97.36,2.95.53.69.12,1.39.24,2.08.37.15.03.29.09.43.11,2.38.36,4.77.71,7.15,1.07.69.11,1.38.27,2.07.39.8.14,1.61.25,2.42.38.88.15,1.77.26,2.62.49.84.23.93.49.75,1.32-1.19,5.33-2.08,10.7-2.99,16.08-.89,5.28-1.28,10.61-1.79,15.93-.44,4.62-.55,9.26-.53,13.9.03,7.5.17,15,.22,22.5.02,3.08-.05,6.15-.69,9.19-.29,1.37-.34,2.8-.54,4.19-.1.65-.27,1.3-.46,1.94-.24.82-.53,1.62-.79,2.43-.09.28-.16.57-.26.85-.74,2.07-.84,2.12-2.99,2.14-7.93.06-15.85.14-23.78.21-.88,0-1.76,0-2.77,0-.03-.49-.04-.96-.08-1.42-.09-.92-.19-1.83-.29-2.75-.02-.15-.09-.29-.09-.43-.04-2.68-.95-5.17-1.73-7.68-1.5-4.85-3.08-9.68-4.63-14.52-.47-1.48-.94-2.97-1.42-4.45-.09-.27-.21-.53-.53-.77,0,.98.02,1.96,0,2.93-.15,6.16.02,12.33-1.07,18.43-.08.47-.06.96-.16,1.43-.2,1.01-.44,2.02-.66,3.03-.2.9-.41,1.8-.58,2.71-.21,1.15-.41,1.36-1.6,1.4-.89.03-1.79.02-2.68.03-5.1.09-10.2.17-15.29.29-2.64.06-5.28.22-7.92.32-.47.02-.94-.05-1.38-.08-.34-1.55-.61-3.01-.98-4.43-.7-2.65-1.41-5.3-2.2-7.93-2.19-7.28-4.62-14.5-6.42-21.89-1.13-4.65-2.07-9.35-2.58-14.12-.39-3.65-.83-7.3-1.23-10.95-.06-.55-.07-1.11-.08-1.67-.08-4.86-.21-9.72-.23-14.59-.01-2.67.17-5.34.23-8.02.02-.68.3-1.05.88-1.39.73-.42,1.47-.7,2.31-.71,1.36-.03,2.64-.43,3.9-.87.39-.13.78-.33,1.17-.33,1.52,0,2.92-.47,4.33-.94.6-.2,1.24-.23,1.85-.38.97-.24,1.92-.52,2.89-.78.32-.09.65-.21.97-.21,1.59,0,3.07-.5,4.55-1.01.71-.24,1.42-.41,2.32-.21,0,.46.03.93,0,1.39-.33,4.18-.74,8.36-.98,12.54-.18,3.11-.15,6.24-.18,9.35-.02,1.82-.04,3.64.08,5.46.29,4.59.59,9.18,1.03,13.76.29,3.02.71,6.04,1.28,9.03.66,3.49,1.55,6.95,2.34,10.42.01.06.07.12.11.18l.25.02Z"/>
  <path class="cls-1" d="m126.21,102.23c1.86,0,3.57.04,5.28,0,2.79-.08,5.58-.24,8.37-.34,1.22-.04,1.18,0,1.3,1.23.49,4.8,1.02,9.6,1.52,14.39.18,1.69.32,3.39.49,5.22-2.55.18-5.03.24-7.5.36-2.44.12-4.89.29-7.39.44.25,2.6.49,5.1.75,7.74,7.21-.08,14.26-.16,21.39-.25.08.36.17.64.19.92.22,2.93.25,5.85-.18,8.77-.12.84-.09,1.7-.12,2.56-.01.26,0,.52-.01.78-.02.62-1.25,4.79-1.51,5.32-.32.63-.76.89-1.5.9-8,.12-16,.27-24,.44-5.47.11-10.94.25-16.41.38-.47.01-.94,0-1.47,0,.03-.32.02-.51.08-.67.92-2.74,1.17-5.57,1.17-8.45,0-3.42-.03-6.83-.57-10.22-.73-4.54-1.49-9.08-2.14-13.64-.55-3.89-1-7.8-1.44-11.71-.98-8.85-.92-17.72-.38-26.59.36-5.89.94-11.77,1.88-17.6.37-2.31.76-4.61,1.16-6.91.19-1.1.22-1.13,1.36-1.21,2.93-.22,5.86-.41,8.8-.6,5.68-.36,11.36-.73,17.04-1.07,4.27-.25,8.54-.46,12.82-.69,1.67-.09,3.34-.17,5.01-.24.21,0,.43.04.79.08-.08.52-.15.98-.23,1.45-.54,3.37-1.09,6.74-1.62,10.11-.31,1.94-.7,3.88-.88,5.83-.58,6.17-1.14,12.35-1.13,18.56,0,2.38.25,1.96-2.07,2.32-.66.1-1.29.35-1.94.45-1.54.23-3.1.39-4.64.61-1.61.23-3.22.53-4.84.72-2.14.26-4.29.45-6.44.67-.99.1-1.12.23-1.18,1.22-.03.48-.05.97-.03,1.45.07,2.4.16,4.81.24,7.27Z"/>
  <path class="cls-2" d="m583.6,67.97c1.04.13,1.87.19,2.76.65,3.3,1.72,4.92,4.71,6.33,7.87,2,4.49,2.95,9.24,3.35,14.12.12,1.52.18,3.04.29,4.56.41,5.75-.49,11.32-2.29,16.77-.92,2.78-2.38,5.27-4.18,7.57-1.65,2.11-3.79,3.5-6.46,4.34,0-.37-.02-.69,0-1,.25-3.41.58-6.81.74-10.22.14-2.85.12-5.72.13-8.58,0-5.94.07-11.88-.05-17.82-.11-5.71-.41-11.43-.63-17.14-.01-.33,0-.65,0-1.14Z"/>
  <path class="cls-2" d="m535.9,96.51c-.2,3.7-.59,7.69-2.15,11.45-.72,1.73-1.63,3.35-3.13,4.53-.34.27-.76.44-1.16.61-.27.12-.7,0-.66.53,0,.05-.39.17-.59.18-1,.02-2.01.01-3.01,0-.26,0-1.78-.91-2.17-1.27-1.38-1.25-2.34-2.78-3.09-4.46-1.79-4.01-2.74-8.23-3.13-12.58-.12-1.29-.28-2.58-.35-3.88-.26-4.34.06-8.61,1.64-12.71.58-1.49,1.31-2.9,2.44-4.07.77-.8,1.57-1.54,2.79-1.59.73-.03,1.46-.25,2.18-.22,2.09.11,3.44,1.48,4.59,3,.87,1.15,1.65,2.4,2.25,3.7,2.07,4.49,3.51,11.75,3.56,16.76Zm-10.32-9.03c-.47,4.07-.3,8.08,1.09,11.96.37-4.06-.04-8.05-1.09-11.96Z"/>
  <path class="cls-2" d="m451.28,91.57c.29-2.39.43-4.77.91-7.08.52-2.5,1.44-4.91,3.27-6.83.78-.82,1.57-1.61,2.81-1.7.77-.06,1.52-.27,2.29-.3,1.27-.05,2.26.6,3.18,1.4,2.17,1.88,3.49,4.32,4.55,6.91,1.7,4.15,2.78,8.49,3.02,12.95.21,4.04-.06,8.11-1.58,11.94-.52,1.3-1.27,2.52-2.03,3.69-.61.93-1.53,1.52-2.51,2.11-1.3.78-2.64.69-3.96.65-.78-.02-1.62-.52-2.3-.99-1.47-1.01-2.47-2.45-3.28-4.02-1.73-3.32-2.81-6.87-3.35-10.56-.4-2.71-.68-5.44-1.01-8.17Zm9.42-2.4c-.41.73-.44,1.29-.32,1.9.11.58.24,1.19.17,1.77-.22,1.8-.05,3.55.41,5.29.11.43.12.88.22,1.32.19.77.22,1.6.82,2.48.15-.51.27-.84.34-1.18.21-1.18.18-2.36-.08-3.54-.11-.5-.19-1.03-.19-1.54,0-2.18-.67-4.22-1.37-6.5Z"/>
  <path class="cls-2" d="m398.66,97.17c.21.25.3.36.49.6-1.62.11-3.09.2-4.51.29-.93-1.74-2.23-21.34-2.75-25.6.48-.74,1.2-1.06,2.04-1.2.62-.11,1.22-.33,1.84-.45,1.06-.19,2.12,0,3.01.52,1.6.95,2.76,2.35,3.59,4.02,1.2,2.39,1.74,4.95,2.07,7.58.29,2.27.22,4.54-.28,6.75-.49,2.17-1.14,4.3-2.75,5.99-.73.76-1.44,1.51-2.75,1.49Z"/>
  <path class="cls-2" d="m260.76,108.43c-1.65-10.27-2.48-20.53-3.12-30.72.73-.42,1.29-.88,1.94-1.1,1.93-.65,3.79-.49,5.53.64,2.14,1.4,3.51,3.41,4.43,5.72,1.37,3.43,2.22,6.98,2.52,10.68.17,2.08.24,4.14-.27,6.19-.78,3.19-2.43,5.77-5.43,7.22-1.71.83-3.53,1.57-5.6,1.35Z"/>
  <path class="cls-2" d="m201.64,101.59c2.03,7.51,4.69,14.82,7.23,22.18-1.51.34-6.07.51-7.27.26-.08-7.45-.15-14.93-.23-22.41.09,0,.18-.01.27-.02Z"/>
  <path class="cls-1" d="m525.58,87.48c1.06,3.92,1.47,7.9,1.09,11.96-1.4-3.88-1.57-7.89-1.09-11.96Z"/>
  <path class="cls-1" d="m460.71,89.17c.7,2.28,1.36,4.32,1.37,6.5,0,.51.07,1.04.19,1.54.26,1.18.3,2.36.08,3.54-.06.34-.19.66-.34,1.18-.6-.88-.64-1.71-.82-2.48-.1-.43-.11-.89-.22-1.32-.46-1.74-.62-3.49-.41-5.29.07-.57-.06-1.19-.17-1.77-.12-.61-.08-1.17.32-1.9Z"/>
</svg>