<svg width="313" height="106" viewBox="0 0 313 106" fill="none" xmlns="http://www.w3.org/2000/svg">
<path d="M308 17.0972L5 5.99994V99.9999L308 90.2083V17.0972Z" fill="#FEAE03"/>
<path fill-rule="evenodd" clip-rule="evenodd" d="M313 12.2769L0 0.813477V105.164L313 95.0493V12.2769ZM308 90.2083V17.0972L5 5.99995V100L308 90.2083Z" fill="#2B2830"/>
<path d="M204.656 56.5781L203.672 66.9843L183.938 68.5312L184.688 35.0624H196.875L195.141 56.5781H204.656Z" fill="#2B2830"/>
<path d="M183 56.5781L182.016 66.9843L162.281 68.5312L163.031 35.0624H175.219L173.484 56.5781H183Z" fill="#2B2830"/>
<path d="M160.898 50.0624C160.898 51.4218 160.805 52.7812 160.617 54.1406C157.945 54.3124 155.289 54.5937 152.648 54.9843C150.008 55.3593 147.367 55.7343 144.727 56.1093C145.133 57.2343 145.766 58.1328 146.625 58.8046C147.5 59.4765 148.539 59.8124 149.742 59.8124C150.367 59.8124 151.047 59.6953 151.781 59.4609C152.531 59.2265 153.273 58.9374 154.008 58.5937C154.742 58.2343 155.445 57.8515 156.117 57.4453C156.789 57.039 157.367 56.6718 157.852 56.3437L156.727 66.9843C156.117 67.4531 155.453 67.8515 154.734 68.1796C154.031 68.5078 153.297 68.7734 152.531 68.9765C151.766 69.1796 150.992 69.3281 150.211 69.4218C149.43 69.5156 148.664 69.5624 147.914 69.5624C146.367 69.5624 144.953 69.3515 143.672 68.9296C142.391 68.5078 141.227 67.9218 140.18 67.1718C139.148 66.4062 138.242 65.5078 137.461 64.4765C136.68 63.4453 136.031 62.3203 135.516 61.1015C135 59.8828 134.609 58.5937 134.344 57.2343C134.078 55.8749 133.945 54.4999 133.945 53.1093C133.945 51.6562 134.078 50.2031 134.344 48.7499C134.609 47.2968 135.008 45.8984 135.539 44.5546C136.086 43.2109 136.766 41.9687 137.578 40.8281C138.406 39.6718 139.367 38.664 140.461 37.8046C141.555 36.9453 142.789 36.2734 144.164 35.789C145.555 35.3046 147.086 35.0624 148.758 35.0624C150.148 35.0624 151.414 35.2578 152.555 35.6484C153.711 36.0234 154.734 36.5546 155.625 37.2421C156.531 37.914 157.312 38.7187 157.969 39.6562C158.641 40.5937 159.188 41.6249 159.609 42.7499C160.047 43.8593 160.367 45.039 160.57 46.289C160.789 47.5234 160.898 48.7812 160.898 50.0624ZM151.523 48.8437C151.523 48.4062 151.477 47.9609 151.383 47.5078C151.289 47.039 151.133 46.6171 150.914 46.2421C150.711 45.8671 150.438 45.5624 150.094 45.3281C149.75 45.0781 149.32 44.9531 148.805 44.9531C148.18 44.9531 147.625 45.1249 147.141 45.4687C146.672 45.7968 146.266 46.2187 145.922 46.7343C145.578 47.2343 145.297 47.7812 145.078 48.3749C144.859 48.9687 144.695 49.5156 144.586 50.0156L151.523 49.3593V48.8437Z" fill="#2B2830"/>
<path d="M133.219 56.9999C133.219 59.1406 132.844 60.9921 132.094 62.5546C131.359 64.1015 130.344 65.3828 129.047 66.3984C127.766 67.3984 126.258 68.1406 124.523 68.6249C122.805 69.0937 120.953 69.3281 118.969 69.3281C118.203 69.3281 117.359 69.2265 116.438 69.0234C115.531 68.8203 114.609 68.5703 113.672 68.2734C112.734 67.9609 111.828 67.6328 110.953 67.289C110.094 66.9296 109.328 66.5937 108.656 66.2812L109.688 57.0937C111.016 57.8906 112.484 58.4999 114.094 58.9218C115.719 59.3281 117.312 59.5312 118.875 59.5312C119.172 59.5312 119.531 59.5234 119.953 59.5078C120.375 59.4765 120.773 59.4062 121.148 59.2968C121.539 59.1718 121.867 58.9921 122.133 58.7578C122.398 58.5234 122.531 58.1874 122.531 57.7499C122.531 57.4531 122.438 57.2031 122.25 56.9999C122.062 56.7812 121.82 56.6093 121.523 56.4843C121.227 56.3437 120.891 56.2421 120.516 56.1796C120.141 56.1015 119.773 56.0468 119.414 56.0156C119.055 55.9843 118.719 55.9687 118.406 55.9687C118.094 55.9687 117.844 55.9687 117.656 55.9687C116.312 55.9687 115.086 55.7578 113.977 55.3359C112.883 54.914 111.938 54.3203 111.141 53.5546C110.359 52.7734 109.75 51.8359 109.312 50.7421C108.875 49.6328 108.656 48.4062 108.656 47.0624C108.656 45.2187 109.023 43.5703 109.758 42.1171C110.508 40.6484 111.5 39.4062 112.734 38.3906C113.984 37.3593 115.414 36.5703 117.023 36.0234C118.633 35.4765 120.297 35.2031 122.016 35.2031C122.781 35.2031 123.57 35.2343 124.383 35.2968C125.195 35.3437 126 35.4374 126.797 35.5781C127.609 35.7187 128.398 35.8984 129.164 36.1171C129.93 36.3359 130.656 36.6093 131.344 36.9374L130.453 46.4531C129.391 46.0937 128.273 45.7968 127.102 45.5624C125.945 45.3124 124.812 45.1874 123.703 45.1874C123.5 45.1874 123.234 45.1953 122.906 45.2109C122.594 45.2109 122.258 45.2343 121.898 45.2812C121.555 45.3124 121.203 45.3671 120.844 45.4453C120.484 45.5234 120.164 45.6328 119.883 45.7734C119.602 45.8984 119.375 46.0703 119.203 46.289C119.031 46.5078 118.953 46.7656 118.969 47.0624C118.984 47.4062 119.109 47.6718 119.344 47.8593C119.594 48.0468 119.906 48.1874 120.281 48.2812C120.672 48.3593 121.094 48.3984 121.547 48.3984C122.016 48.3984 122.477 48.3906 122.93 48.3749C123.383 48.3437 123.805 48.3203 124.195 48.3046C124.586 48.2734 124.906 48.2656 125.156 48.2812C126.406 48.3593 127.531 48.6249 128.531 49.0781C129.531 49.5312 130.375 50.1328 131.062 50.8828C131.766 51.6328 132.297 52.5312 132.656 53.5781C133.031 54.6093 133.219 55.7499 133.219 56.9999Z" fill="#2B2830"/>
</svg>
