<svg width="152" height="98" viewBox="0 0 152 98" fill="none" xmlns="http://www.w3.org/2000/svg">
<path d="M4 10.571L148 6V93L4 83.2643V10.571Z" fill="#FEAE03"/>
<path fill-rule="evenodd" clip-rule="evenodd" d="M0 4.895L152 0V98L0 87.5741V4.895ZM4.60606 82.8789V9.75007L147.394 5.15174V92.6729L4.60606 82.8789Z" fill="#2B2830"/>
<path d="M104.844 59.75C104.109 60.6719 103.203 61.4766 102.125 62.1641C101.047 62.8516 99.8906 63.4219 98.6562 63.875C97.4219 64.3281 96.1562 64.6719 94.8594 64.9062C93.5625 65.125 92.3281 65.2344 91.1562 65.2344C88.8906 65.2344 86.8047 64.8516 84.8984 64.0859C82.9922 63.3203 81.3438 62.2578 79.9531 60.8984C78.5781 59.5234 77.5 57.8906 76.7188 56C75.9375 54.1094 75.5469 52.0469 75.5469 49.8125C75.5469 48.1094 75.7422 46.4531 76.1328 44.8438C76.5234 43.2344 77.0781 41.7266 77.7969 40.3203C78.5312 38.9141 79.4219 37.625 80.4688 36.4531C81.5156 35.2812 82.7031 34.2734 84.0312 33.4297C85.3594 32.5859 86.8125 31.9375 88.3906 31.4844C89.9844 31.0156 91.6719 30.7812 93.4531 30.7812C94.125 30.7812 94.8438 30.8125 95.6094 30.875C96.375 30.9219 97.1328 31.0156 97.8828 31.1562C98.6484 31.2812 99.3906 31.4609 100.109 31.6953C100.828 31.9297 101.484 32.2188 102.078 32.5625L101.422 41.5156C100.547 41.1875 99.6406 40.9688 98.7031 40.8594C97.7812 40.7344 96.875 40.6719 95.9844 40.6719C94.7344 40.6719 93.5625 40.8438 92.4688 41.1875C91.3906 41.5156 90.4453 42.0078 89.6328 42.6641C88.8359 43.3203 88.2031 44.1406 87.7344 45.125C87.2656 46.1094 87.0312 47.25 87.0312 48.5469C87.0312 49.3594 87.1406 50.1484 87.3594 50.9141C87.5781 51.6641 87.9062 52.3359 88.3438 52.9297C88.7969 53.5078 89.3516 53.9766 90.0078 54.3359C90.6797 54.6953 91.4531 54.875 92.3281 54.875C92.9219 54.875 93.5312 54.7969 94.1562 54.6406C94.7969 54.4844 95.3438 54.2188 95.7969 53.8438L95.8906 52.0156L90.2656 51.9219L90.5469 44.8906C92.875 44.8125 95.2031 44.75 97.5312 44.7031C99.8594 44.6406 102.203 44.5625 104.562 44.4688L104.844 59.75Z" fill="#2B2830"/>
<path d="M75.8281 31.9531L75.5938 41.8906L68.6094 42.1719L67.7656 63.9219L57.875 64.4375L56.9844 42.6875L50 43.0625L50.2812 32L75.8281 31.9531Z" fill="#2B2830"/>
</svg>
